<?xml version="1.0" encoding="utf-8"?>
<!-- Generator: Adobe Illustrator 23.0.2, SVG Export Plug-In . SVG Version: 6.00 Build 0)  -->
<svg version="1.1" id="图层_1" xmlns="http://www.w3.org/2000/svg" xmlns:xlink="http://www.w3.org/1999/xlink" x="0px" y="0px"
	 viewBox="0 0 200 200" style="enable-background:new 0 0 200 200;" xml:space="preserve">
<style type="text/css">
	.st0{fill:#87CBFF;}
	.st1{fill:#FF556E;}
	.st2{fill:#FF5F71;}
	.st3{fill:#FF6974;}
	.st4{fill:#FF7377;}
	.st5{fill:#FF7E7A;}
	.st6{fill:#FF887D;}
	.st7{fill:#FF9280;}
	.st8{fill:#EF4868;}
	.st9{fill:#FFC7C7;}
	.st10{fill:#FFFFFF;}
</style>
<ellipse class="st0" cx="102.2" cy="169.1" rx="76.5" ry="25.3"/>
<path class="st1" d="M176.1,79.2c0,15.1-4.5,29.2-12.2,40.9c-10.2,15.5-41.5,39.8-55.2,50.1c-3.9,2.9-9.2,2.9-13.1,0
	c-13.4-10.1-43.6-33.5-53.9-48.1C33.3,110,28.3,95.3,28.3,79.4c0-40.9,33.1-74,73.9-74C143.1,5.3,176.1,38.3,176.1,79.2L176.1,79.2z
	"/>
<path class="st1" d="M83.4,160.7c4.7,3.8,9,7,12.3,9.5c3.9,2.9,9.2,2.9,13.1,0c4.1-3.1,9.7-7.4,15.9-12.3c-8,2.9-16.7,4.4-25.7,4.4
	C93.6,162.3,88.4,161.8,83.4,160.7L83.4,160.7z M102.2,5.3c-19.6,0-37.5,7.7-50.8,20.2C64.5,15.2,81,9.1,99,9.1
	c42.3,0,76.6,34.3,76.6,76.6c0,1.2,0,2.4-0.1,3.5c0.4-3.3,0.6-6.6,0.6-10C176.1,38.3,143.1,5.3,102.2,5.3z"/>
<path class="st2" d="M98.9,9.1c-17.9,0-34.4,6.2-47.5,16.5C37.2,39,28.3,58.2,28.3,79.4c0,15.9,5,30.6,13.5,42.7
	c7.8,11,26.9,27.1,41.6,38.7c5,1,10.3,1.6,15.6,1.6c9,0,17.7-1.6,25.7-4.4c14.5-11.6,32.1-26.9,39.2-37.7c6-9.1,10.1-19.6,11.6-31
	c0.1-1.2,0.1-2.3,0.1-3.5C175.6,43.4,141.3,9.1,98.9,9.1z M95.7,148.2c-36.5,0-66.1-29.6-66.1-66.1s29.6-66.1,66.1-66.1
	s66.1,29.6,66.1,66.1S132.2,148.2,95.7,148.2z"/>
<path class="st3" d="M95.7,16c-36.5,0-66.1,29.6-66.1,66.1s29.6,66.1,66.1,66.1s66.1-29.6,66.1-66.1S132.2,16,95.7,16z M92.4,134.1
	c-30.7,0-55.6-24.9-55.6-55.6s24.9-55.6,55.6-55.6S148,47.7,148,78.5S123.1,134.1,92.4,134.1z"/>
<path class="st4" d="M92.4,22.9c-30.7,0-55.6,24.9-55.6,55.6s24.9,55.6,55.6,55.6S148,109.2,148,78.5S123.1,22.9,92.4,22.9z
	 M89.2,120C64.2,120,44,99.8,44,74.9s20.2-45.1,45.1-45.1s45.1,20.2,45.1,45.1S114.1,120,89.2,120L89.2,120z"/>
<path class="st5" d="M89.2,29.8C64.2,29.8,44,50,44,74.9S64.2,120,89.2,120s45.1-20.2,45.1-45.1S114.1,29.8,89.2,29.8z M85.9,105.9
	c-19.1,0-34.6-15.5-34.6-34.6s15.5-34.6,34.6-34.6s34.6,15.5,34.6,34.6S105,105.9,85.9,105.9z"/>
<path class="st6" d="M85.9,36.6c-19.1,0-34.6,15.5-34.6,34.6s15.5,34.6,34.6,34.6s34.6-15.5,34.6-34.6S105,36.6,85.9,36.6z
	 M82.6,91.8c-13.3,0-24.1-10.8-24.1-24.1s10.8-24.1,24.1-24.1s24.1,10.8,24.1,24.1S96,91.8,82.6,91.8z"/>
<path class="st7" d="M58.5,67.7c0,13.3,10.8,24.1,24.1,24.1s24.1-10.8,24.1-24.1S96,43.6,82.6,43.6S58.5,54.4,58.5,67.7z"/>
<path class="st8" d="M102.2,8.7c9.6,0,18.8,1.9,27.5,5.5c8.4,3.5,16,8.6,22.4,15.1c6.5,6.5,11.6,14,15.1,22.4
	c3.7,8.7,5.5,18,5.6,27.5c0,14-4,27.5-11.7,39.1c-10,15.1-41.4,39.5-54.4,49.2c-1.3,1-2.9,1.5-4.5,1.5c-1.7,0-3.2-0.5-4.6-1.5
	c-12.6-9.5-43.1-33.1-53.2-47.4c-8.4-12-12.9-26.1-12.9-40.8c0-9.6,1.9-18.8,5.5-27.5c3.5-8.4,8.6-16,15.1-22.5s14-11.6,22.4-15.2
	C83.4,10.5,92.7,8.7,102.2,8.7 M102.2,5.3c-40.8,0-73.9,33.1-73.9,74c0,15.9,5,30.6,13.5,42.7c10.3,14.6,40.5,38.1,53.9,48.1
	c1.9,1.5,4.3,2.2,6.6,2.2c2.3,0,4.6-0.7,6.5-2.2c13.7-10.3,44.9-34.6,55.2-50c7.7-11.7,12.3-25.8,12.2-40.9
	C176.1,38.3,143.1,5.3,102.2,5.3z"/>
<path class="st9" d="M102.2,43.7c19.5,0,35.4,15.8,35.4,35.4s-15.8,35.4-35.4,35.4c-19.5,0-35.4-15.8-35.4-35.4
	S82.7,43.7,102.2,43.7z"/>
<path class="st10" d="M54.1,42.6c-0.7,0-1.5-0.2-2.1-0.8c-1.4-1.2-1.6-3.3-0.5-4.7c8.9-10.8,19.3-16.2,19.8-16.4
	c1.6-0.8,3.6-0.2,4.5,1.5c0.8,1.6,0.2,3.6-1.4,4.5c-0.1,0.1-9.7,5-17.7,14.7C56,42.1,55,42.6,54.1,42.6z M46.6,53.4
	c-0.6,0-1.2-0.2-1.7-0.5c-1.6-1-2.1-3-1.1-4.6l1.1-1.8c1-1.6,3-2.1,4.6-1.1c1.6,1,2.1,3,1.1,4.6l-1.1,1.8
	C48.8,52.9,47.7,53.4,46.6,53.4z"/>
</svg>
